<?xml version="1.0" encoding="iso-8859-1"?>
<!-- Generator: Adobe Illustrator 10.0.3, SVG Export Plug-In . SVG Version: 3.0.0 Build 77)  -->
<!DOCTYPE svg PUBLIC "-//W3C//DTD SVG 1.0//EN"    "http://www.w3.org/TR/2001/REC-SVG-20010904/DTD/svg10.dtd" [
	<!ENTITY ns_flows "http://ns.adobe.com/Flows/1.0/">
	<!ENTITY ns_svg "http://www.w3.org/2000/svg">
	<!ENTITY ns_xlink "http://www.w3.org/1999/xlink">
]>
<svg  xmlns="&ns_svg;" xmlns:xlink="&ns_xlink;" xmlns:a="http://ns.adobe.com/AdobeSVGViewerExtensions/3.0/"
	 width="509.481" height="773.601" viewBox="0 0 509.481 773.601"
	 style="overflow:visible;enable-background:new 0 0 509.481 773.601" xml:space="preserve">
	<g id="Layer_1">
		<g>
			<path d="M44.526,72.295h72v-72h-72V72.295z"/>
			<path style="fill:#676767;" d="M19.056,102.479h72v-72h-72V102.479z"/>
			<path style="fill:#B6B6B6;" d="M7.77,116.464h72v-72h-72V116.464z"/>
			<path style="fill:#C7C7C7;" d="M20.768,109.015h72v-72h-72V109.015z"/>
			<path style="fill:#2A2A2A;" d="M3.157,87.16h72v-72h-72V87.16z"/>
			<path style="fill:#1A1A1A;" d="M3.438,119.329h72v-72h-72V119.329z"/>
			<path style="fill:#AFAFAF;" d="M40.167,138.917h72v-72h-72V138.917z"/>
			<path style="fill:#2F2F2F;" d="M45.604,118.441h72v-72h-72V118.441z"/>
			<path style="fill:#3D3D3D;" d="M56.572,106.298h72v-72h-72V106.298z"/>
			<path style="fill:#E8E8E8;" d="M11.978,101.573h72v-72h-72V101.573z"/>
			<path style="fill:#AEAEAE;" d="M42.8,75.271h72v-72h-72V75.271z"/>
			<path style="fill:#C0C0C0;" d="M55.873,86.184h72v-72h-72V86.184z"/>
			<path style="fill:#5F5F5F;" d="M32.988,91.841h72v-72h-72V91.841z"/>
			<path style="fill:#8F8F8F;" d="M26.84,124.148h72v-72h-72V124.148z"/>
			<path style="fill:#DCDCDC;" d="M46.804,128.547h72v-72h-72V128.547z"/>
			<path style="fill:#AFAFAF;" d="M25.246,106.345h72v-72h-72V106.345z"/>
			<path style="fill:#9B9B9B;" d="M38.732,97.172h72v-72h-72V97.172z"/>
			<path style="fill:#8B8B8B;" d="M36.938,120.837h72v-72h-72V120.837z"/>
			<path style="fill:#F0F0F0;" d="M50.498,82.633h72v-72h-72V82.633z"/>
			<path style="fill:#767676;" d="M0,127.443h72v-72H0V127.443z"/>
		</g>
		<g>
			<path style="fill:#FEFEFE;" d="M213.289,74.302h72v-72h-72V74.302z"/>
			<path style="fill:#606060;" d="M218.015,90.596h72v-72h-72V90.596z"/>
			<path style="fill:#CECECE;" d="M244.317,85.538h72v-72h-72V85.538z"/>
			<path style="fill:#FCFCFC;" d="M233.403,112.985h72v-72h-72V112.985z"/>
			<path style="fill:#ABABAB;" d="M227.747,99.393h72v-72h-72V99.393z"/>
			<path style="fill:#959595;" d="M195.439,77.694h72v-72h-72V77.694z"/>
			<path style="fill:#DCDCDC;" d="M191.041,90.274h72v-72h-72V90.274z"/>
			<path style="fill:#8F8F8F;" d="M213.243,95.91h72v-72h-72V95.91z"/>
			<path style="fill:#BFBFBF;" d="M222.416,100.372h72v-72h-72V100.372z"/>
			<path style="fill:#B9B9B9;" d="M198.75,72h72V0h-72V72z"/>
			<path style="fill:#E9E9E9;" d="M236.955,106.351h72v-72h-72V106.351z"/>
			<path style="fill:#363636;" d="M192.145,131.66h72v-72h-72V131.66z"/>
			<path style="fill:#EDEDED;" d="M226.041,112.099h72v-72h-72V112.099z"/>
			<path style="fill:#525252;" d="M227.598,125.493h72v-72h-72V125.493z"/>
			<path style="fill:#AEAEAE;" d="M220.252,125.012h72v-72h-72V125.012z"/>
			<path style="fill:#A5A5A5;" d="M206.53,112.347h72v-72h-72V112.347z"/>
			<path style="fill:#1A1A1A;" d="M244.098,86.521h72v-72h-72V86.521z"/>
			<path style="fill:#F5F5F5;" d="M198.852,88.224h72v-72h-72V88.224z"/>
			<path style="fill:#1B1B1B;" d="M198.365,76.619h72v-72h-72V76.619z"/>
			<path style="fill:#FCFCFC;" d="M229.75,98.389h72v-72h-72V98.389z"/>
		</g>
		<g>
			<path style="fill:#9D9D9D;" d="M395.887,91.373h72v-72h-72V91.373z"/>
			<path style="fill:#494949;" d="M424.259,77.812h72v-72h-72V77.812z"/>
			<path style="fill:#D1D1D1;" d="M389.908,128.311h72v-72h-72V128.311z"/>
			<path style="fill:#323232;" d="M364.599,76.675h72v-72h-72V76.675z"/>
			<path style="fill:#AAAAAA;" d="M384.16,120.282h72v-72h-72V120.282z"/>
			<path style="fill:#B0B0B0;" d="M370.766,94.36h72v-72h-72V94.36z"/>
			<path style="fill:#969696;" d="M371.247,96.984h72v-72h-72V96.984z"/>
			<path style="fill:#656565;" d="M383.911,136.097h72v-72h-72V136.097z"/>
			<path style="fill:#EAEAEA;" d="M409.737,74.465h72v-72h-72V74.465z"/>
			<path style="fill:#4A4A4A;" d="M408.035,135.87h72v-72h-72V135.87z"/>
			<path style="fill:#484848;" d="M419.64,72.545h72v-72h-72V72.545z"/>
			<path style="fill:#B7B7B7;" d="M397.87,114.118h72v-72h-72V114.118z"/>
			<path style="fill:#838383;" d="M377.771,98.454h72v-72h-72V98.454z"/>
			<path style="fill:#020202;" d="M376.35,131.672h72v-72h-72V131.672z"/>
			<path style="fill:#AAAAAA;" d="M369.355,95.99h72v-72h-72V95.99z"/>
			<path style="fill:#1F1F1F;" d="M391.592,75.507h72v-72h-72V75.507z"/>
			<path style="fill:#6B6B6B;" d="M418.545,100.597h72v-72h-72V100.597z"/>
			<path style="fill:#272727;" d="M382.345,106.656h72v-72h-72V106.656z"/>
			<path style="fill:#575757;" d="M400.707,137.74h72v-72h-72V137.74z"/>
			<path style="fill:#878787;" d="M386.524,124.613h72v-72h-72V124.613z"/>
		</g>
		<g>
			<path style="fill:#BCBCBC;" d="M70.259,265.865h72v-72h-72V265.865z"/>
			<path style="fill:#B6B6B6;" d="M8.854,266.352h72v-72h-72V266.352z"/>
			<path style="fill:#DFDFDF;" d="M72.179,234.967h72v-72h-72V234.967z"/>
			<path style="fill:#929292;" d="M30.605,249.849h72v-72h-72V249.849z"/>
			<path style="fill:#4B4B4B;" d="M46.27,286.227h72v-72h-72V286.227z"/>
			<path style="fill:#464646;" d="M13.052,238.706h72v-72h-72V238.706z"/>
			<path style="fill:#2D2D2D;" d="M48.734,277.972h72v-72h-72V277.972z"/>
			<path style="fill:#7C7C7C;" d="M69.217,256.597h72v-72h-72V256.597z"/>
			<path style="fill:#DCDCDC;" d="M44.127,275.834h72v-72h-72V275.834z"/>
			<path style="fill:#5B5B5B;" d="M38.068,262.099h72v-72h-72V262.099z"/>
			<path style="fill:#9C9C9C;" d="M6.983,248.56h72v-72h-72V248.56z"/>
			<path style="fill:#6A6A6A;" d="M20.111,276.539h72v-72h-72V276.539z"/>
			<path style="fill:#CFCFCF;" d="M7.934,259.416h72v-72h-72V259.416z"/>
			<path style="fill:#828282;" d="M47.411,279.081h72v-72h-72V279.081z"/>
			<path style="fill:#B6B6B6;" d="M44.917,259.754h72v-72h-72V259.754z"/>
			<path style="fill:#949494;" d="M21.575,276.225h72v-72h-72V276.225z"/>
			<path style="fill:#747474;" d="M34.325,239.945h72v-72h-72V239.945z"/>
			<path style="fill:#FBFBFB;" d="M65.962,230.788h72v-72h-72V230.788z"/>
			<path style="fill:#535353;" d="M20.208,220.913h72v-72h-72V220.913z"/>
			<path style="fill:#F9F9F9;" d="M31.586,230.906h72v-72h-72V230.906z"/>
		</g>
		<g>
			<path style="fill:#989898;" d="M169.089,260.311h72v-72h-72V260.311z"/>
			<path style="fill:#838383;" d="M182.824,241.948h72v-72h-72V241.948z"/>
			<path style="fill:#151515;" d="M196.363,256.131h72v-72h-72V256.131z"/>
			<path style="fill:#434343;" d="M168.385,227.582h72v-72h-72V227.582z"/>
			<path style="fill:#181818;" d="M185.507,249.47h72v-72h-72V249.47z"/>
			<path style="fill:#A4A4A4;" d="M165.842,234.701h72v-72h-72V234.701z"/>
			<path style="fill:#9B9B9B;" d="M185.169,244.404h72v-72h-72V244.404z"/>
			<path style="fill:#484848;" d="M168.698,253.452h72v-72h-72V253.452z"/>
			<path style="fill:#757575;" d="M204.978,215.268h72v-72h-72V215.268z"/>
			<path style="fill:#E6E6E6;" d="M214.136,262.626h72v-72h-72V262.626z"/>
			<path style="fill:#434343;" d="M224.011,215.912h72v-72h-72V215.912z"/>
			<path style="fill:#6C6C6C;" d="M214.017,261.458h72v-72h-72V261.458z"/>
			<path style="fill:#252525;" d="M165.767,226.036h72v-72h-72V226.036z"/>
			<path style="fill:#F8F8F8;" d="M201.287,281.852h72v-72h-72V281.852z"/>
			<path style="fill:#808080;" d="M223.313,215.834h72v-72h-72V215.834z"/>
			<path style="fill:#8D8D8D;" d="M215.593,281.893h72v-72h-72V281.893z"/>
			<path style="fill:#2B2B2B;" d="M175.756,254.556h72v-72h-72V254.556z"/>
			<path style="fill:#A8A8A8;" d="M162.097,233.667h72v-72h-72V233.667z"/>
			<path style="fill:#313131;" d="M221.367,232.57h72v-72h-72V232.57z"/>
			<path style="fill:#707070;" d="M216.098,255.689h72v-72h-72V255.689z"/>
		</g>
		<g>
			<path style="fill:#A6A6A6;" d="M427.172,231.217h72v-72h-72V231.217z"/>
			<path style="fill:#C6C6C6;" d="M379.813,276.972h72v-72h-72V276.972z"/>
			<path style="fill:#E9E9E9;" d="M426.528,265.592h72v-72h-72V265.592z"/>
			<path style="fill:#C6C6C6;" d="M380.981,285.585h72v-72h-72V285.585z"/>
			<path style="fill:#1B1B1B;" d="M416.403,225.862h72v-72h-72V225.862z"/>
			<path style="fill:#999999;" d="M360.587,259.882h72v-72h-72V259.882z"/>
			<path style="fill:#E7E7E7;" d="M426.605,256.354h72v-72h-72V256.354z"/>
			<path style="fill:#CBCBCB;" d="M360.547,283.762h72v-72h-72V283.762z"/>
			<path style="fill:#3E3E3E;" d="M387.883,248.578h72v-72h-72V248.578z"/>
			<path style="fill:#0E0E0E;" d="M408.771,282.095h72v-72h-72V282.095z"/>
			<path style="fill:#E0E0E0;" d="M409.87,264.318h72v-72h-72V264.318z"/>
			<path style="fill:#CDCDCD;" d="M386.75,283.085h72v-72h-72V283.085z"/>
			<path style="fill:#525252;" d="M382.72,288.032h72v-72h-72V288.032z"/>
			<path style="fill:#565656;" d="M358.973,294.955h72v-72h-72V294.955z"/>
			<path style="fill:#464646;" d="M410.391,259.641h72v-72h-72V259.641z"/>
			<path style="fill:#2A2A2A;" d="M366.786,269.213h72v-72h-72V269.213z"/>
			<path style="fill:#787878;" d="M407.343,243.478h72v-72h-72V243.478z"/>
			<path style="fill:#A8A8A8;" d="M415.317,234.56h72v-72h-72V234.56z"/>
			<path style="fill:#D2D2D2;" d="M409.351,246.079h72v-72h-72V246.079z"/>
			<path style="fill:#E2E2E2;" d="M366.099,232.903h72v-72h-72V232.903z"/>
		</g>
		<g>
			<path style="fill:#707070;" d="M64.044,433.635h72v-72h-72V433.635z"/>
			<path style="fill:#BABABA;" d="M30.528,374.364h72v-72h-72V374.364z"/>
			<path style="fill:#BEBEBE;" d="M48.304,379.634h72v-72h-72V379.634z"/>
			<path style="fill:#6C6C6C;" d="M29.537,414.338h72v-72h-72V414.338z"/>
			<path style="fill:#5D5D5D;" d="M24.59,413.178h72v-72h-72V413.178z"/>
			<path style="fill:#090909;" d="M17.667,417.723h72v-72h-72V417.723z"/>
			<path style="fill:#BFBFBF;" d="M52.982,425.532h72v-72h-72V425.532z"/>
			<path style="fill:#252525;" d="M43.409,403.596h72v-72h-72V403.596z"/>
			<path style="fill:#B5B5B5;" d="M69.145,390.073h72v-72h-72V390.073z"/>
			<path style="fill:#D1D1D1;" d="M78.062,378.294h72v-72h-72V378.294z"/>
			<path style="fill:#BCBCBC;" d="M66.543,373.688h72v-72h-72V373.688z"/>
			<path style="fill:#232323;" d="M79.719,407.913h72v-72h-72V407.913z"/>
			<path style="fill:#525252;" d="M77.04,436.696h72v-72h-72V436.696z"/>
			<path style="fill:#616161;" d="M48.69,426.327h72v-72h-72V426.327z"/>
			<path style="fill:#A4A4A4;" d="M24.383,371.082h72v-72h-72V371.082z"/>
			<path style="fill:#8B8B8B;" d="M43.095,394.228h72v-72h-72V394.228z"/>
			<path style="fill:#919191;" d="M57.228,406.113h72v-72h-72V406.113z"/>
			<path style="fill:#F9F9F9;" d="M48.342,405.997h72v-72h-72V405.997z"/>
			<path style="fill:#AAAAAA;" d="M66.6,375.174h72v-72h-72V375.174z"/>
			<path style="fill:#464646;" d="M50.23,436.144h72v-72h-72V436.144z"/>
		</g>
		<g>
			<path style="fill:#6F6F6F;" d="M255.549,404.416h72v-72h-72V404.416z"/>
			<path style="fill:#707070;" d="M233.147,386.157h72v-72h-72V386.157z"/>
			<path style="fill:#DDDDDD;" d="M204.963,402.527h72v-72h-72V402.527z"/>
			<path style="fill:#050505;" d="M190.673,417.844h72v-72h-72V417.844z"/>
			<path style="fill:#6F6F6F;" d="M238.034,373.942h72v-72h-72V373.942z"/>
			<path style="fill:#CECECE;" d="M202.808,405.273h72v-72h-72V405.273z"/>
			<path style="fill:#FBFBFB;" d="M204.521,395.249h72v-72h-72V395.249z"/>
			<path style="fill:#A7A7A7;" d="M247.211,382.206h72v-72h-72V382.206z"/>
			<path style="fill:#424242;" d="M255.782,416.736h72v-72h-72V416.736z"/>
			<path style="fill:#0C0C0C;" d="M231.486,391.69h72v-72h-72V391.69z"/>
			<path style="fill:#CCCCCC;" d="M187.068,384.24h72v-72h-72V384.24z"/>
			<path style="fill:#F4F4F4;" d="M198.912,380.458h72v-72h-72V380.458z"/>
			<path style="fill:#171717;" d="M221.125,424.793h72v-72h-72V424.793z"/>
			<path style="fill:#0D0D0D;" d="M256.164,407.418h72v-72h-72V407.418z"/>
			<path style="fill:#FBFBFB;" d="M220.297,400.093h72v-72h-72V400.093z"/>
			<path style="fill:#0F0F0F;" d="M242.838,392.691h72v-72h-72V392.691z"/>
			<path style="fill:#626262;" d="M198.199,368.617h72v-72h-72V368.617z"/>
			<path style="fill:#E1E1E1;" d="M214.156,410.325h72v-72h-72V410.325z"/>
			<path style="fill:#D8D8D8;" d="M239.313,382.073h72v-72h-72V382.073z"/>
			<path style="fill:#080808;" d="M217.281,409.64h72v-72h-72V409.64z"/>
		</g>
		<g>
			<path style="fill:#FAFAFA;" d="M374.392,449.687h72v-72h-72V449.687z"/>
			<path style="fill:#A4A4A4;" d="M399.437,395.513h72v-72h-72V395.513z"/>
			<path style="fill:#060606;" d="M406.887,384.228h72v-72h-72V384.228z"/>
			<path style="fill:#303030;" d="M410.669,446.668h72v-72h-72V446.668z"/>
			<path style="fill:#7F7F7F;" d="M366.334,449.297h72v-72h-72V449.297z"/>
			<path style="fill:#FBFBFB;" d="M383.709,382.16h72v-72h-72V382.16z"/>
			<path style="fill:#7C7C7C;" d="M391.035,448.84h72v-72h-72V448.84z"/>
			<path style="fill:#CCCCCC;" d="M398.437,425.264h72v-72h-72V425.264z"/>
			<path style="fill:#2E2E2E;" d="M422.511,389.672h72v-72h-72V389.672z"/>
			<path style="fill:#666666;" d="M380.803,392.083h72v-72h-72V392.083z"/>
			<path style="fill:#C0C0C0;" d="M409.054,450.875h72v-72h-72V450.875z"/>
			<path style="fill:#717171;" d="M381.488,413.815h72v-72h-72V413.815z"/>
			<path style="fill:#DBDBDB;" d="M377.69,429.682h72v-72h-72V429.682z"/>
			<path style="fill:#E8E8E8;" d="M425.334,416.899h72v-72h-72V416.899z"/>
			<path style="fill:#E7E7E7;" d="M392.288,423.021h72v-72h-72V423.021z"/>
			<path style="fill:#9F9F9F;" d="M368.706,426.622h72v-72h-72V426.622z"/>
			<path style="fill:#4D4D4D;" d="M381.226,415.513h72v-72h-72V415.513z"/>
			<path style="fill:#777777;" d="M396.967,420.892h72v-72h-72V420.892z"/>
			<path style="fill:#272727;" d="M360.402,386.611h72v-72h-72V386.611z"/>
			<path style="fill:#666666;" d="M357.773,422.487h72v-72h-72V422.487z"/>
		</g>
		<g>
			<path style="fill:#EFEFEF;" d="M74.948,570.357h72v-72h-72V570.357z"/>
			<path style="fill:#5B5B5B;" d="M72.537,545.2h72v-72h-72V545.2z"/>
			<path style="fill:#C0C0C0;" d="M13.745,567.232h72v-72h-72V567.232z"/>
			<path style="fill:#5E5E5E;" d="M50.805,537.542h72v-72h-72V537.542z"/>
			<path style="fill:#505050;" d="M34.938,533.661h72v-72h-72V533.661z"/>
			<path style="fill:#F9F9F9;" d="M47.721,534.134h72v-72h-72V534.134z"/>
			<path style="fill:#848484;" d="M41.599,554.271h72v-72h-72V554.271z"/>
			<path style="fill:#313131;" d="M37.998,577.521h72v-72h-72V577.521z"/>
			<path style="fill:#5D5D5D;" d="M49.107,565.646h72v-72h-72V565.646z"/>
			<path style="fill:#959595;" d="M43.728,588.286h72v-72h-72V588.286z"/>
			<path style="fill:#131313;" d="M78.009,570.495h72v-72h-72V570.495z"/>
			<path style="fill:#0A0A0A;" d="M42.133,546.827h72v-72h-72V546.827z"/>
			<path style="fill:#9F9F9F;" d="M77.665,541.285h72v-72h-72V541.285z"/>
			<path style="fill:#343434;" d="M74.352,550.873h72v-72h-72V550.873z"/>
			<path style="fill:#3A3A3A;" d="M80.737,567.054h72v-72h-72V567.054z"/>
			<path style="fill:#BCBCBC;" d="M68.152,594.519h72v-72h-72V594.519z"/>
			<path style="fill:#9D9D9D;" d="M78.689,558.876h72v-72h-72V558.876z"/>
			<path style="fill:#5F5F5F;" d="M57.036,580.598h72v-72h-72V580.598z"/>
			<path style="fill:#6C6C6C;" d="M73.866,527.892h72v-72h-72V527.892z"/>
			<path style="fill:#4A4A4A;" d="M33.259,566.827h72v-72h-72V566.827z"/>
		</g>
		<g>
			<path style="fill:#858585;" d="M233.507,557.022h72v-72h-72V557.022z"/>
			<path style="fill:#727272;" d="M210.867,593.587h72v-72h-72V593.587z"/>
			<path style="fill:#EBEBEB;" d="M228.658,596.216h72v-72h-72V596.216z"/>
			<path style="fill:#6C6C6C;" d="M252.326,554.09h72v-72h-72V554.09z"/>
			<path style="fill:#EAEAEA;" d="M257.868,584.245h72v-72h-72V584.245z"/>
			<path style="fill:#DEDEDE;" d="M248.28,582.608h72v-72h-72V582.608z"/>
			<path style="fill:#F5F5F5;" d="M232.099,545.871h72v-72h-72V545.871z"/>
			<path style="fill:#C8C8C8;" d="M204.634,554.689h72v-72h-72V554.689z"/>
			<path style="fill:#EEEEEE;" d="M240.276,572.299h72v-72h-72V572.299z"/>
			<path style="fill:#A1A1A1;" d="M218.555,568.575h72v-72h-72V568.575z"/>
			<path style="fill:#DDDDDD;" d="M271.261,578.149h72v-72h-72V578.149z"/>
			<path style="fill:#4D4D4D;" d="M232.326,537.855h72v-72h-72V537.855z"/>
			<path style="fill:#D3D3D3;" d="M252.437,540.936h72v-72h-72V540.936z"/>
			<path style="fill:#A3A3A3;" d="M248.994,536.444h72v-72h-72V536.444z"/>
			<path style="fill:#FDFDFD;" d="M204.887,566.622h72v-72h-72V566.622z"/>
			<path style="fill:#151515;" d="M239.229,589.253h72v-72h-72V589.253z"/>
			<path style="fill:#B6B6B6;" d="M216.82,588.463h72v-72h-72V588.463z"/>
			<path style="fill:#A1A1A1;" d="M230.716,590.288h72v-72h-72V590.288z"/>
			<path style="fill:#747474;" d="M202.221,566.256h72v-72h-72V566.256z"/>
			<path style="fill:#141414;" d="M244.232,586.627h72v-72h-72V586.627z"/>
		</g>
		<g>
			<path style="fill:#8F8F8F;" d="M381.89,567.159h72v-72h-72V567.159z"/>
			<path style="fill:#424242;" d="M385.615,550.328h72v-72h-72V550.328z"/>
			<path style="fill:#FDFDFD;" d="M376.04,590.936h72v-72h-72V590.936z"/>
			<path style="fill:#737373;" d="M416.334,552.995h72v-72h-72V552.995z"/>
			<path style="fill:#BABABA;" d="M413.253,566.735h72v-72h-72V566.735z"/>
			<path style="fill:#AEAEAE;" d="M417.745,541.067h72v-72h-72V541.067z"/>
			<path style="fill:#121212;" d="M387.567,606.663h72v-72h-72V606.663z"/>
			<path style="fill:#8B8B8B;" d="M364.936,561.341h72v-72h-72V561.341z"/>
			<path style="fill:#3C3C3C;" d="M365.726,567.119h72v-72h-72V567.119z"/>
			<path style="fill:#6D6D6D;" d="M363.902,579.893h72v-72h-72V579.893z"/>
			<path style="fill:#080808;" d="M387.933,607.048h72v-72h-72V607.048z"/>
			<path style="fill:#9D9D9D;" d="M367.562,608.093h72v-72h-72V608.093z"/>
			<path style="fill:#8A8A8A;" d="M397.615,549.404h72v-72h-72V549.404z"/>
			<path style="fill:#ADADAD;" d="M373.515,544.503h72v-72h-72V544.503z"/>
			<path style="fill:#C1C1C1;" d="M399.07,595.683h72v-72h-72V595.683z"/>
			<path style="fill:#DBDBDB;" d="M396.039,545.479h72v-72h-72V545.479z"/>
			<path style="fill:#474747;" d="M425.729,592.874h72v-72h-72V592.874z"/>
			<path style="fill:#A1A1A1;" d="M361.753,585.899h72v-72h-72V585.899z"/>
			<path style="fill:#040404;" d="M393.688,582.875h72v-72h-72V582.875z"/>
			<path style="fill:#C3C3C3;" d="M411.746,581.118h72v-72h-72V581.118z"/>
		</g>
		<g>
			<path style="fill:#252525;" d="M62.304,739.797h72v-72h-72V739.797z"/>
			<path style="fill:#1F1F1F;" d="M49.53,768.292h72v-72h-72V768.292z"/>
			<path style="fill:#747474;" d="M22.375,726.281h72v-72h-72V726.281z"/>
			<path style="fill:#2C2C2C;" d="M21.33,731.799h72v-72h-72V731.799z"/>
			<path style="fill:#969696;" d="M80.019,721.757h72v-72h-72V721.757z"/>
			<path style="fill:#414141;" d="M84.919,716.118h72v-72h-72V716.118z"/>
			<path style="fill:#9B9B9B;" d="M33.74,708.904h72v-72h-72V708.904z"/>
			<path style="fill:#919191;" d="M83.943,750.628h72v-72h-72V750.628z"/>
			<path style="fill:#FAFAFA;" d="M36.549,725.214h72v-72h-72V725.214z"/>
			<path style="fill:#171717;" d="M43.524,769.407h72v-72h-72V769.407z"/>
			<path style="fill:#888888;" d="M46.549,715.462h72v-72h-72V715.462z"/>
			<path style="fill:#C8C8C8;" d="M48.306,767.079h72v-72h-72V767.079z"/>
			<path style="fill:#AFAFAF;" d="M61.48,752.057h72v-72h-72V752.057z"/>
			<path style="fill:#090909;" d="M37.748,717.724h72v-72h-72V717.724z"/>
			<path style="fill:#DADADA;" d="M72.889,702.317h72v-72h-72V702.317z"/>
			<path style="fill:#F0F0F0;" d="M48.295,744.345h72v-72h-72V744.345z"/>
			<path style="fill:#737373;" d="M44.188,699.753h72v-72h-72V699.753z"/>
			<path style="fill:#626262;" d="M46.891,748.902h72v-72h-72V748.902z"/>
			<path style="fill:#F3F3F3;" d="M79.887,751.395h72v-72h-72V751.395z"/>
			<path style="fill:#8D8D8D;" d="M88.152,741.889h72v-72h-72V741.889z"/>
		</g>
		<g>
			<path style="fill:#464646;" d="M233.771,757.608h72v-72h-72V757.608z"/>
			<path style="fill:#5F5F5F;" d="M189.579,725.673h72v-72h-72V725.673z"/>
			<path style="fill:#696969;" d="M243.524,707.615h72v-72h-72V707.615z"/>
			<path style="fill:#707070;" d="M191.906,714.656h72v-72h-72V714.656z"/>
			<path style="fill:#9E9E9E;" d="M206.929,761.606h72v-72h-72V761.606z"/>
			<path style="fill:#4A4A4A;" d="M241.262,702.602h72v-72h-72V702.602z"/>
			<path style="fill:#C7C7C7;" d="M256.668,696.342h72v-72h-72V696.342z"/>
			<path style="fill:#707070;" d="M214.64,731.598h72v-72h-72V731.598z"/>
			<path style="fill:#616161;" d="M259.232,736.538h72v-72h-72V736.538z"/>
			<path style="fill:#6B6B6B;" d="M210.083,695.554h72v-72h-72V695.554z"/>
			<path style="fill:#E0E0E0;" d="M207.59,724.37h72v-72h-72V724.37z"/>
			<path style="fill:#FDFDFD;" d="M217.097,697.191h72v-72h-72V697.191z"/>
			<path style="fill:#6C6C6C;" d="M256.219,757.199h72v-72h-72V757.199z"/>
			<path style="fill:#868686;" d="M260.029,725.622h72v-72h-72V725.622z"/>
			<path style="fill:#0D0D0D;" d="M215.749,730.272h72v-72h-72V730.272z"/>
			<path style="fill:#606060;" d="M252.917,730.212h72v-72h-72V730.212z"/>
			<path style="fill:#C8C8C8;" d="M200.193,752.841h72v-72h-72V752.841z"/>
			<path style="fill:#202020;" d="M255.945,756.877h72v-72h-72V756.877z"/>
			<path style="fill:#646464;" d="M256.934,725.559h72v-72h-72V725.559z"/>
			<path style="fill:#AEAEAE;" d="M254.094,734.913h72v-72h-72V734.913z"/>
		</g>
		<g>
			<path style="fill:#FBFBFB;" d="M396.497,744.071h72v-72h-72V744.071z"/>
			<path style="fill:#4D4D4D;" d="M437.481,711.075h72v-72h-72V711.075z"/>
			<path style="fill:#444444;" d="M408.665,702.81h72v-72h-72V702.81z"/>
			<path style="fill:#666666;" d="M435.844,743.794h72v-72h-72V743.794z"/>
			<path style="fill:#F0F0F0;" d="M375.836,736.257h72v-72h-72V736.257z"/>
			<path style="fill:#FEFEFE;" d="M407.414,770.618h72v-72h-72V770.618z"/>
			<path style="fill:#616161;" d="M402.763,746.987h72v-72h-72V746.987z"/>
			<path style="fill:#E5E5E5;" d="M402.823,717.624h72v-72h-72V717.624z"/>
			<path style="fill:#2A2A2A;" d="M380.194,765.162h72v-72h-72V765.162z"/>
			<path style="fill:#EFEFEF;" d="M376.158,745.848h72v-72h-72V745.848z"/>
			<path style="fill:#F3F3F3;" d="M407.476,725.197h72v-72h-72V725.197z"/>
			<path style="fill:#E9E9E9;" d="M398.123,708.217h72v-72h-72V708.217z"/>
			<path style="fill:#C0C0C0;" d="M409.441,731.015h72v-72h-72V731.015z"/>
			<path style="fill:#E3E3E3;" d="M381.914,751.898h72v-72h-72V751.898z"/>
			<path style="fill:#686868;" d="M396.849,707.87h72v-72h-72V707.87z"/>
			<path style="fill:#CBCBCB;" d="M418.012,711.887h72v-72h-72V711.887z"/>
			<path style="fill:#D6D6D6;" d="M389.842,773.601h72v-72h-72V773.601z"/>
			<path style="fill:#474747;" d="M372.001,703.019h72v-72h-72V703.019z"/>
			<path style="fill:#606060;" d="M420.937,748.614h72v-72h-72V748.614z"/>
			<path style="fill:#D0D0D0;" d="M436.52,764.187h72v-72h-72V764.187z"/>
		</g>
	</g>
</svg>
