<?xml version="1.0" encoding="iso-8859-1"?>
<!-- Generator: Adobe Illustrator 10.0.3, SVG Export Plug-In . SVG Version: 3.0.0 Build 77)  -->
<!DOCTYPE svg PUBLIC "-//W3C//DTD SVG 1.0//EN"    "http://www.w3.org/TR/2001/REC-SVG-20010904/DTD/svg10.dtd" [
	<!ENTITY ns_flows "http://ns.adobe.com/Flows/1.0/">
	<!ENTITY ns_svg "http://www.w3.org/2000/svg">
	<!ENTITY ns_xlink "http://www.w3.org/1999/xlink">
]>
<svg  xmlns="&ns_svg;" xmlns:xlink="&ns_xlink;" xmlns:a="http://ns.adobe.com/AdobeSVGViewerExtensions/3.0/"
	 width="521.694" height="781.838" viewBox="0 0 521.694 781.838"
	 style="overflow:visible;enable-background:new 0 0 521.694 781.838" xml:space="preserve">
	<g id="Layer_1">
		<g>
			<path style="fill:#F77FAC;" d="M20.678,103.124h72v-72h-72V103.124z"/>
			<path style="fill:#B2BED2;" d="M47.614,72h72V0h-72V72z"/>
			<path style="fill:#C0778D;" d="M43.18,102.813h72v-72h-72V102.813z"/>
			<path style="fill:#9C4D92;" d="M55.504,130.099h72v-72h-72V130.099z"/>
			<path style="fill:#AE9984;" d="M37.242,89.141h72v-72h-72V89.141z"/>
			<path style="fill:#A392A4;" d="M14.184,75.42h72v-72h-72V75.42z"/>
			<path style="fill:#E8D37A;" d="M8.7,128.994h72v-72h-72V128.994z"/>
			<path style="fill:#2DA09A;" d="M21.054,119.844h72v-72h-72V119.844z"/>
			<path style="fill:#AB5B84;" d="M35.686,128.432h72v-72h-72V128.432z"/>
			<path style="fill:#A37C6A;" d="M0.913,77.041h72v-72h-72V77.041z"/>
			<path style="fill:#BFDD55;" d="M44.928,135.432h72v-72h-72V135.432z"/>
			<path style="fill:#4DA6CB;" d="M45.183,101.81h72v-72h-72V101.81z"/>
		</g>
		<g>
			<path style="fill:#A392A4;" d="M221.197,72.119h72v-72h-72V72.119z"/>
			<path style="fill:#E8D37A;" d="M215.713,125.693h72v-72h-72V125.693z"/>
			<path style="fill:#2DA09A;" d="M228.066,116.543h72v-72h-72V116.543z"/>
			<path style="fill:#AB5B84;" d="M242.698,125.131h72v-72h-72V125.131z"/>
			<path style="fill:#A37C6A;" d="M207.926,73.74h72v-72h-72V73.74z"/>
			<path style="fill:#BFDD55;" d="M251.941,132.131h72v-72h-72V132.131z"/>
			<path style="fill:#4DA6CB;" d="M252.196,98.509h72v-72h-72V98.509z"/>
			<path style="fill:#767E65;" d="M245.569,139.349h72v-72h-72V139.349z"/>
			<path style="fill:#674977;" d="M213.261,92.251h72v-72h-72V92.251z"/>
			<path style="fill:#315BA0;" d="M230.566,77.833h72v-72h-72V77.833z"/>
			<path style="fill:#95555A;" d="M237.367,115.22h72v-72h-72V115.22z"/>
			<path style="fill:#984A69;" d="M230.43,120.874h72v-72h-72V120.874z"/>
		</g>
		<g>
			<path style="fill:#BFDD55;" d="M416.064,129.422h72v-72h-72V129.422z"/>
			<path style="fill:#4DA6CB;" d="M416.32,95.799h72v-72h-72V95.799z"/>
			<path style="fill:#767E65;" d="M409.693,136.639h72v-72h-72V136.639z"/>
			<path style="fill:#674977;" d="M377.384,89.542h72v-72h-72V89.542z"/>
			<path style="fill:#315BA0;" d="M394.689,75.124h72v-72h-72V75.124z"/>
			<path style="fill:#95555A;" d="M401.491,112.511h72v-72h-72V112.511z"/>
			<path style="fill:#984A69;" d="M394.554,118.165h72v-72h-72V118.165z"/>
			<path style="fill:#459247;" d="M391.87,100.483h72v-72h-72V100.483z"/>
			<path style="fill:#A4477D;" d="M408.339,110.166h72v-72h-72V110.166z"/>
			<path style="fill:#936947;" d="M397.233,103.95h72v-72h-72V103.95z"/>
			<path style="fill:#A8DBD7;" d="M420.498,113.64h72v-72h-72V113.64z"/>
			<path style="fill:#4AACCC;" d="M395.009,81.319h72v-72h-72V81.319z"/>
		</g>
		<g>
			<path style="fill:#95555A;" d="M25.112,279.623h72v-72h-72V279.623z"/>
			<path style="fill:#984A69;" d="M18.175,285.276h72v-72h-72V285.276z"/>
			<path style="fill:#459247;" d="M15.49,267.595h72v-72h-72V267.595z"/>
			<path style="fill:#A4477D;" d="M31.96,277.278h72v-72h-72V277.278z"/>
			<path style="fill:#936947;" d="M20.854,271.062h72v-72h-72V271.062z"/>
			<path style="fill:#A8DBD7;" d="M44.119,280.751h72v-72h-72V280.751z"/>
			<path style="fill:#4AACCC;" d="M18.63,248.43h72v-72h-72V248.43z"/>
			<path style="fill:#56463B;" d="M48.269,234.071h72v-72h-72V234.071z"/>
			<path style="fill:#954865;" d="M53.297,233.959h72v-72h-72V233.959z"/>
			<path style="fill:#99B53B;" d="M0.46,286.691h72v-72h-72V286.691z"/>
			<path style="fill:#839844;" d="M40.638,290.303h72v-72h-72V290.303z"/>
			<path style="fill:#DFC276;" d="M46.081,273.814h72v-72h-72V273.814z"/>
		</g>
		<g>
			<path style="fill:#A8DBD7;" d="M236.317,280.626h72v-72h-72V280.626z"/>
			<path style="fill:#4AACCC;" d="M210.827,248.305h72v-72h-72V248.305z"/>
			<path style="fill:#56463B;" d="M240.467,233.946h72v-72h-72V233.946z"/>
			<path style="fill:#954865;" d="M245.494,233.834h72v-72h-72V233.834z"/>
			<path style="fill:#99B53B;" d="M192.658,286.566h72v-72h-72V286.566z"/>
			<path style="fill:#839844;" d="M232.836,290.178h72v-72h-72V290.178z"/>
			<path style="fill:#DFC276;" d="M238.279,273.689h72v-72h-72V273.689z"/>
			<path style="fill:#4B5357;" d="M188.388,279.769h72v-72h-72V279.769z"/>
			<path style="fill:#352F3A;" d="M234.454,267.724h72v-72h-72V267.724z"/>
			<path style="fill:#4A4450;" d="M214.317,253.096h72v-72h-72V253.096z"/>
			<path style="fill:#BDAABC;" d="M241.86,244.885h72v-72h-72V244.885z"/>
			<path style="fill:#BFADC6;" d="M190.162,240.987h72v-72h-72V240.987z"/>
		</g>
		<g>
			<path style="fill:#839844;" d="M420.596,288.636h72v-72h-72V288.636z"/>
			<path style="fill:#DFC276;" d="M426.04,272.148h72v-72h-72V272.148z"/>
			<path style="fill:#4B5357;" d="M376.148,278.227h72v-72h-72V278.227z"/>
			<path style="fill:#352F3A;" d="M422.215,266.183h72v-72h-72V266.183z"/>
			<path style="fill:#4A4450;" d="M402.077,251.555h72v-72h-72V251.555z"/>
			<path style="fill:#BDAABC;" d="M429.62,243.343h72v-72h-72V243.343z"/>
			<path style="fill:#BFADC6;" d="M377.923,239.446h72v-72h-72V239.446z"/>
			<path style="fill:#7B5894;" d="M368.977,275.309h72v-72h-72V275.309z"/>
			<path style="fill:#814E78;" d="M375.941,236.131h72v-72h-72V236.131z"/>
			<path style="fill:#8F7486;" d="M409.112,261.937h72v-72h-72V261.937z"/>
			<path style="fill:#73C075;" d="M399.676,254.66h72v-72h-72V254.66z"/>
			<path style="fill:#B7CD5C;" d="M401.789,301.193h72v-72h-72V301.193z"/>
		</g>
		<g>
			<path style="fill:#BDAABC;" d="M61.624,404.812h72v-72h-72V404.812z"/>
			<path style="fill:#BFADC6;" d="M9.927,400.915h72v-72h-72V400.915z"/>
			<path style="fill:#7B5894;" d="M0.981,436.778h72v-72h-72V436.778z"/>
			<path style="fill:#814E78;" d="M7.945,397.601h72v-72h-72V397.601z"/>
			<path style="fill:#8F7486;" d="M41.116,423.406h72v-72h-72V423.406z"/>
			<path style="fill:#73C075;" d="M31.68,416.129h72v-72h-72V416.129z"/>
			<path style="fill:#B7CD5C;" d="M33.792,462.662h72v-72h-72V462.662z"/>
			<path style="fill:#474E5D;" d="M52.953,401.818h72v-72h-72V401.818z"/>
			<path style="fill:#CA5B5B;" d="M71.026,444.755h72v-72h-72V444.755z"/>
			<path style="fill:#9A9BB8;" d="M54.114,445.339h72v-72h-72V445.339z"/>
			<path style="fill:#F9490D;" d="M46.406,419.566h72v-72h-72V419.566z"/>
			<path style="fill:#C43173;" d="M69.003,450.364h72v-72h-72V450.364z"/>
		</g>
		<g>
			<path style="fill:#73C075;" d="M213.507,412.921h72v-72h-72V412.921z"/>
			<path style="fill:#B7CD5C;" d="M215.619,459.455h72v-72h-72V459.455z"/>
			<path style="fill:#474E5D;" d="M234.78,398.61h72v-72h-72V398.61z"/>
			<path style="fill:#CA5B5B;" d="M252.853,441.547h72v-72h-72V441.547z"/>
			<path style="fill:#9A9BB8;" d="M235.941,442.131h72v-72h-72V442.131z"/>
			<path style="fill:#F9490D;" d="M228.233,416.358h72v-72h-72V416.358z"/>
			<path style="fill:#C43173;" d="M250.83,447.156h72v-72h-72V447.156z"/>
			<path style="fill:#BF3F5E;" d="M193.353,457.054h72v-72h-72V457.054z"/>
			<path style="fill:#F26BB1;" d="M217.043,424.761h72v-72h-72V424.761z"/>
			<path style="fill:#36918F;" d="M209.793,447.87h72v-72h-72V447.87z"/>
			<path style="fill:#EFE16B;" d="M207.822,399.84h72v-72h-72V399.84z"/>
			<path style="fill:#C0C036;" d="M214.028,434.308h72v-72h-72V434.308z"/>
		</g>
		<g>
			<path style="fill:#F9490D;" d="M421.363,420.667h72v-72h-72V420.667z"/>
			<path style="fill:#C43173;" d="M443.96,451.465h72v-72h-72V451.465z"/>
			<path style="fill:#BF3F5E;" d="M386.483,461.363h72v-72h-72V461.363z"/>
			<path style="fill:#F26BB1;" d="M410.173,429.069h72v-72h-72V429.069z"/>
			<path style="fill:#36918F;" d="M402.923,452.178h72v-72h-72V452.178z"/>
			<path style="fill:#EFE16B;" d="M400.952,404.149h72v-72h-72V404.149z"/>
			<path style="fill:#C0C036;" d="M407.157,438.616h72v-72h-72V438.616z"/>
			<path style="fill:#96BE65;" d="M398.506,399.525h72v-72h-72V399.525z"/>
			<path style="fill:#F385AF;" d="M412.437,435.087h72v-72h-72V435.087z"/>
			<path style="fill:#9C5B5C;" d="M396.87,438.878h72v-72h-72V438.878z"/>
			<path style="fill:#8B818A;" d="M407.296,454.149h72v-72h-72V454.149z"/>
			<path style="fill:#269772;" d="M377.923,434.553h72v-72h-72V434.553z"/>
		</g>
		<g>
			<path style="fill:#EFE16B;" d="M23.029,570.208h72v-72h-72V570.208z"/>
			<path style="fill:#C0C036;" d="M29.235,604.674h72v-72h-72V604.674z"/>
			<path style="fill:#96BE65;" d="M20.583,565.583h72v-72h-72V565.583z"/>
			<path style="fill:#F385AF;" d="M34.515,601.145h72v-72h-72V601.145z"/>
			<path style="fill:#9C5B5C;" d="M18.947,604.937h72v-72h-72V604.937z"/>
			<path style="fill:#8B818A;" d="M29.373,620.208h72v-72h-72V620.208z"/>
			<path style="fill:#269772;" d="M0,600.611h72v-72H0V600.611z"/>
			<path style="fill:#BC9AC0;" d="M55.182,616.418h72v-72h-72V616.418z"/>
			<path style="fill:#DDB247;" d="M66.382,598.975h72v-72h-72V598.975z"/>
			<path style="fill:#BFC439;" d="M41.527,564.055h72v-72h-72V564.055z"/>
			<path style="fill:#94758A;" d="M15.87,600.748h72v-72h-72V600.748z"/>
			<path style="fill:#DDEF4E;" d="M18.904,598.749h72v-72h-72V598.749z"/>
		</g>
		<g>
			<path style="fill:#8B818A;" d="M211.123,624.333h72v-72h-72V624.333z"/>
			<path style="fill:#269772;" d="M181.75,604.736h72v-72h-72V604.736z"/>
			<path style="fill:#BC9AC0;" d="M236.932,620.543h72v-72h-72V620.543z"/>
			<path style="fill:#DDB247;" d="M248.132,603.1h72v-72h-72V603.1z"/>
			<path style="fill:#BFC439;" d="M223.277,568.18h72v-72h-72V568.18z"/>
			<path style="fill:#94758A;" d="M197.62,604.873h72v-72h-72V604.873z"/>
			<path style="fill:#DDEF4E;" d="M200.654,602.874h72v-72h-72V602.874z"/>
			<path style="fill:#D9D5BD;" d="M237.03,589.41h72v-72h-72V589.41z"/>
			<path style="fill:#ADC4DD;" d="M183.952,602.921h72v-72h-72V602.921z"/>
			<path style="fill:#4B704F;" d="M230.248,618.379h72v-72h-72V618.379z"/>
			<path style="fill:#538276;" d="M187.678,602.568h72v-72h-72V602.568z"/>
			<path style="fill:#436045;" d="M223.297,622.926h72v-72h-72V622.926z"/>
		</g>
		<g>
			<path style="fill:#94758A;" d="M387.618,607.578h72v-72h-72V607.578z"/>
			<path style="fill:#DDEF4E;" d="M390.652,605.579h72v-72h-72V605.579z"/>
			<path style="fill:#D9D5BD;" d="M427.028,592.115h72v-72h-72V592.115z"/>
			<path style="fill:#ADC4DD;" d="M373.949,605.626h72v-72h-72V605.626z"/>
			<path style="fill:#4B704F;" d="M420.246,621.085h72v-72h-72V621.085z"/>
			<path style="fill:#538276;" d="M377.676,605.273h72v-72h-72V605.273z"/>
			<path style="fill:#436045;" d="M413.295,625.631h72v-72h-72V625.631z"/>
			<path style="fill:#487281;" d="M432.183,589.149h72v-72h-72V589.149z"/>
			<path style="fill:#4BB0AC;" d="M412.844,621.063h72v-72h-72V621.063z"/>
			<path style="fill:#D894C0;" d="M388.947,567.464h72v-72h-72V567.464z"/>
			<path style="fill:#68894B;" d="M395.688,636.799h72v-72h-72V636.799z"/>
			<path style="fill:#94749A;" d="M425.52,606.498h72v-72h-72V606.498z"/>
		</g>
		<g>
			<path style="fill:#538276;" d="M1.308,749.273h72v-72h-72V749.273z"/>
			<path style="fill:#436045;" d="M36.927,769.631h72v-72h-72V769.631z"/>
			<path style="fill:#487281;" d="M55.815,733.149h72v-72h-72V733.149z"/>
			<path style="fill:#4BB0AC;" d="M36.477,765.063h72v-72h-72V765.063z"/>
			<path style="fill:#D894C0;" d="M12.579,711.464h72v-72h-72V711.464z"/>
			<path style="fill:#68894B;" d="M19.321,780.799h72v-72h-72V780.799z"/>
			<path style="fill:#94749A;" d="M49.152,750.498h72v-72h-72V750.498z"/>
			<path style="fill:#40858E;" d="M11.151,779.438h72v-72h-72V779.438z"/>
			<path style="fill:#6097B4;" d="M48.685,713.709h72v-72h-72V713.709z"/>
			<path style="fill:#ED774C;" d="M25.169,754.615h72v-72h-72V754.615z"/>
			<path style="fill:#F7654C;" d="M14.305,713.386h72v-72h-72V713.386z"/>
			<path style="fill:#DB596A;" d="M63.949,753.281h72v-72h-72V753.281z"/>
		</g>
		<g>
			<path style="fill:#68894B;" d="M211.003,781.838h72v-72h-72V781.838z"/>
			<path style="fill:#94749A;" d="M240.835,751.537h72v-72h-72V751.537z"/>
			<path style="fill:#40858E;" d="M202.833,780.477h72v-72h-72V780.477z"/>
			<path style="fill:#6097B4;" d="M240.367,714.749h72v-72h-72V714.749z"/>
			<path style="fill:#ED774C;" d="M216.852,755.654h72v-72h-72V755.654z"/>
			<path style="fill:#F7654C;" d="M205.988,714.425h72v-72h-72V714.425z"/>
			<path style="fill:#DB596A;" d="M255.631,754.32h72v-72h-72V754.32z"/>
			<path style="fill:#E674B1;" d="M191.251,745.137h72v-72h-72V745.137z"/>
			<path style="fill:#FE8A0E;" d="M211.654,749.144h72v-72h-72V749.144z"/>
			<path style="fill:#6FB480;" d="M240.816,771.224h72v-72h-72V771.224z"/>
			<path style="fill:#3E2184;" d="M191.573,754.729h72v-72h-72V754.729z"/>
			<path style="fill:#EF8F8C;" d="M249.998,753.784h72v-72h-72V753.784z"/>
		</g>
		<g>
			<path style="fill:#F7654C;" d="M400.05,722.811h72v-72h-72V722.811z"/>
			<path style="fill:#DB596A;" d="M449.694,762.706h72v-72h-72V762.706z"/>
			<path style="fill:#E674B1;" d="M385.314,753.522h72v-72h-72V753.522z"/>
			<path style="fill:#FE8A0E;" d="M405.716,757.529h72v-72h-72V757.529z"/>
			<path style="fill:#6FB480;" d="M434.879,779.609h72v-72h-72V779.609z"/>
			<path style="fill:#3E2184;" d="M385.635,763.114h72v-72h-72V763.114z"/>
			<path style="fill:#EF8F8C;" d="M444.06,762.169h72v-72h-72V762.169z"/>
			<path style="fill:#E9C48B;" d="M421.488,727.324h72v-72h-72V727.324z"/>
			<path style="fill:#50565E;" d="M406.326,725.136h72v-72h-72V725.136z"/>
			<path style="fill:#CCB1C6;" d="M438.749,770.449h72v-72h-72V770.449z"/>
			<path style="fill:#343F34;" d="M449.484,764.29h72v-72h-72V764.29z"/>
			<path style="fill:#B96E9E;" d="M445.997,781.452h72v-72h-72V781.452z"/>
		</g>
	</g>
</svg>
