<?xml version="1.0" encoding="iso-8859-1"?>
<!-- Generator: Adobe Illustrator 10.0.3, SVG Export Plug-In . SVG Version: 3.0.0 Build 77)  -->
<!DOCTYPE svg PUBLIC "-//W3C//DTD SVG 1.0//EN"    "http://www.w3.org/TR/2001/REC-SVG-20010904/DTD/svg10.dtd" [
	<!ENTITY ns_flows "http://ns.adobe.com/Flows/1.0/">
	<!ENTITY ns_svg "http://www.w3.org/2000/svg">
	<!ENTITY ns_xlink "http://www.w3.org/1999/xlink">
]>
<svg  xmlns="&ns_svg;" xmlns:xlink="&ns_xlink;" xmlns:a="http://ns.adobe.com/AdobeSVGViewerExtensions/3.0/"
	 width="495.504" height="653.525" viewBox="0 0 495.504 653.525"
	 style="overflow:visible;enable-background:new 0 0 495.504 653.525" xml:space="preserve">
	<g id="Layer_1">
		<g>
			<path style="fill:#1088B7;" d="M23.535,108.816h72v-72h-72V108.816z"/>
			<path style="fill:#97A96C;" d="M19.492,86.874h72v-72h-72V86.874z"/>
			<path style="fill:#807A53;" d="M12.792,88.711h72v-72h-72V88.711z"/>
			<path style="fill:#3E4549;" d="M43.879,87.705h72v-72h-72V87.705z"/>
			<path style="fill:#313482;" d="M17.515,125.975h72v-72h-72V125.975z"/>
			<path style="fill:#F77FAC;" d="M21.613,103.124h72v-72h-72V103.124z"/>
			<path style="fill:#B2BED2;" d="M48.549,72h72V0h-72V72z"/>
			<path style="fill:#C0778D;" d="M44.115,102.813h72v-72h-72V102.813z"/>
			<path style="fill:#9C4D92;" d="M56.438,130.099h72v-72h-72V130.099z"/>
			<path style="fill:#AE9984;" d="M38.177,89.141h72v-72h-72V89.141z"/>
			<path style="fill:#A392A4;" d="M15.119,75.42h72v-72h-72V75.42z"/>
			<path style="fill:#E8D37A;" d="M9.635,128.994h72v-72h-72V128.994z"/>
			<path style="fill:#2DA09A;" d="M21.989,119.844h72v-72h-72V119.844z"/>
			<path style="fill:#AB5B84;" d="M36.62,128.432h72v-72h-72V128.432z"/>
			<path style="fill:#A37C6A;" d="M1.848,77.041h72v-72h-72V77.041z"/>
			<path style="fill:#BFDD55;" d="M45.863,135.432h72v-72h-72V135.432z"/>
			<path style="fill:#4DA6CB;" d="M46.118,101.81h72v-72h-72V101.81z"/>
			<path style="fill:#767E65;" d="M39.491,142.65h72v-72h-72V142.65z"/>
			<path style="fill:#674977;" d="M7.183,95.552h72v-72h-72V95.552z"/>
			<path style="fill:#315BA0;" d="M24.488,81.134h72v-72h-72V81.134z"/>
		</g>
		<g>
			<path style="fill:#313482;" d="M174.976,129.931h72v-72h-72V129.931z"/>
			<path style="fill:#F77FAC;" d="M179.073,107.081h72v-72h-72V107.081z"/>
			<path style="fill:#B2BED2;" d="M206.009,75.956h72v-72h-72V75.956z"/>
			<path style="fill:#C0778D;" d="M201.576,106.769h72v-72h-72V106.769z"/>
			<path style="fill:#9C4D92;" d="M213.899,134.055h72v-72h-72V134.055z"/>
			<path style="fill:#AE9984;" d="M195.638,93.097h72v-72h-72V93.097z"/>
			<path style="fill:#A392A4;" d="M172.58,79.377h72v-72h-72V79.377z"/>
			<path style="fill:#E8D37A;" d="M167.096,132.95h72v-72h-72V132.95z"/>
			<path style="fill:#2DA09A;" d="M179.449,123.801h72v-72h-72V123.801z"/>
			<path style="fill:#AB5B84;" d="M194.081,132.389h72v-72h-72V132.389z"/>
			<path style="fill:#A37C6A;" d="M159.309,80.997h72v-72h-72V80.997z"/>
			<path style="fill:#BFDD55;" d="M203.324,139.389h72v-72h-72V139.389z"/>
			<path style="fill:#4DA6CB;" d="M203.579,105.766h72v-72h-72V105.766z"/>
			<path style="fill:#767E65;" d="M196.952,146.606h72v-72h-72V146.606z"/>
			<path style="fill:#674977;" d="M164.644,99.508h72v-72h-72V99.508z"/>
			<path style="fill:#315BA0;" d="M181.949,85.09h72v-72h-72V85.09z"/>
			<path style="fill:#95555A;" d="M188.75,122.478h72v-72h-72V122.478z"/>
			<path style="fill:#984A69;" d="M181.813,128.131h72v-72h-72V128.131z"/>
			<path style="fill:#459247;" d="M179.129,110.45h72v-72h-72V110.45z"/>
			<path style="fill:#A4477D;" d="M195.599,120.133h72v-72h-72V120.133z"/>
		</g>
		<g>
			<path style="fill:#9C4D92;" d="M390.76,133.581h72v-72h-72V133.581z"/>
			<path style="fill:#AE9984;" d="M372.499,92.623h72v-72h-72V92.623z"/>
			<path style="fill:#A392A4;" d="M349.441,78.902h72v-72h-72V78.902z"/>
			<path style="fill:#E8D37A;" d="M343.957,132.476h72v-72h-72V132.476z"/>
			<path style="fill:#2DA09A;" d="M356.311,123.326h72v-72h-72V123.326z"/>
			<path style="fill:#AB5B84;" d="M370.942,131.914h72v-72h-72V131.914z"/>
			<path style="fill:#A37C6A;" d="M336.17,80.523h72v-72h-72V80.523z"/>
			<path style="fill:#BFDD55;" d="M380.186,138.914h72v-72h-72V138.914z"/>
			<path style="fill:#4DA6CB;" d="M380.44,105.291h72v-72h-72V105.291z"/>
			<path style="fill:#767E65;" d="M373.813,146.131h72v-72h-72V146.131z"/>
			<path style="fill:#674977;" d="M341.505,99.034h72v-72h-72V99.034z"/>
			<path style="fill:#315BA0;" d="M358.81,84.615h72v-72h-72V84.615z"/>
			<path style="fill:#95555A;" d="M365.612,122.003h72v-72h-72V122.003z"/>
			<path style="fill:#984A69;" d="M358.675,127.657h72v-72h-72V127.657z"/>
			<path style="fill:#459247;" d="M355.991,109.975h72v-72h-72V109.975z"/>
			<path style="fill:#A4477D;" d="M372.46,119.658h72v-72h-72V119.658z"/>
			<path style="fill:#936947;" d="M361.354,113.442h72v-72h-72V113.442z"/>
			<path style="fill:#A8DBD7;" d="M384.619,123.132h72v-72h-72V123.132z"/>
			<path style="fill:#4AACCC;" d="M359.13,90.811h72v-72h-72V90.811z"/>
			<path style="fill:#56463B;" d="M388.77,76.451h72v-72h-72V76.451z"/>
		</g>
		<g>
			<path style="fill:#2DA09A;" d="M20.14,292.597h72v-72h-72V292.597z"/>
			<path style="fill:#AB5B84;" d="M34.772,301.185h72v-72h-72V301.185z"/>
			<path style="fill:#A37C6A;" d="M0,249.793h72v-72H0V249.793z"/>
			<path style="fill:#BFDD55;" d="M44.015,308.185h72v-72h-72V308.185z"/>
			<path style="fill:#4DA6CB;" d="M44.27,274.562h72v-72h-72V274.562z"/>
			<path style="fill:#767E65;" d="M37.644,315.402h72v-72h-72V315.402z"/>
			<path style="fill:#674977;" d="M5.335,268.304h72v-72h-72V268.304z"/>
			<path style="fill:#315BA0;" d="M22.64,253.886h72v-72h-72V253.886z"/>
			<path style="fill:#95555A;" d="M29.442,291.274h72v-72h-72V291.274z"/>
			<path style="fill:#984A69;" d="M22.505,296.927h72v-72h-72V296.927z"/>
			<path style="fill:#459247;" d="M19.821,279.246h72v-72h-72V279.246z"/>
			<path style="fill:#A4477D;" d="M36.29,288.929h72v-72h-72V288.929z"/>
			<path style="fill:#936947;" d="M25.184,282.713h72v-72h-72V282.713z"/>
			<path style="fill:#A8DBD7;" d="M48.449,292.402h72v-72h-72V292.402z"/>
			<path style="fill:#4AACCC;" d="M22.96,260.082h72v-72h-72V260.082z"/>
			<path style="fill:#56463B;" d="M52.599,245.721h72v-72h-72V245.721z"/>
			<path style="fill:#954865;" d="M57.627,245.61h72v-72h-72V245.61z"/>
			<path style="fill:#99B53B;" d="M4.79,298.342h72v-72h-72V298.342z"/>
			<path style="fill:#839844;" d="M44.968,301.954h72v-72h-72V301.954z"/>
			<path style="fill:#DFC276;" d="M50.412,285.465h72v-72h-72V285.465z"/>
		</g>
		<g>
			<path style="fill:#4DA6CB;" d="M205.617,270.131h72v-72h-72V270.131z"/>
			<path style="fill:#767E65;" d="M198.99,310.972h72v-72h-72V310.972z"/>
			<path style="fill:#674977;" d="M166.681,263.874h72v-72h-72V263.874z"/>
			<path style="fill:#315BA0;" d="M183.986,249.456h72v-72h-72V249.456z"/>
			<path style="fill:#95555A;" d="M190.788,286.843h72v-72h-72V286.843z"/>
			<path style="fill:#984A69;" d="M183.851,292.497h72v-72h-72V292.497z"/>
			<path style="fill:#459247;" d="M181.167,274.816h72v-72h-72V274.816z"/>
			<path style="fill:#A4477D;" d="M197.636,284.499h72v-72h-72V284.499z"/>
			<path style="fill:#936947;" d="M186.53,278.282h72v-72h-72V278.282z"/>
			<path style="fill:#A8DBD7;" d="M209.795,287.972h72v-72h-72V287.972z"/>
			<path style="fill:#4AACCC;" d="M184.306,255.651h72v-72h-72V255.651z"/>
			<path style="fill:#56463B;" d="M213.946,241.291h72v-72h-72V241.291z"/>
		</g>
		<g>
			<path style="fill:#73C075;" d="M369.717,259.208h72v-72h-72V259.208z"/>
			<path style="fill:#B7CD5C;" d="M371.83,305.741h72v-72h-72V305.741z"/>
			<path style="fill:#474E5D;" d="M390.99,244.897h72v-72h-72V244.897z"/>
			<path style="fill:#CA5B5B;" d="M409.063,287.833h72v-72h-72V287.833z"/>
			<path style="fill:#9A9BB8;" d="M392.151,288.418h72v-72h-72V288.418z"/>
			<path style="fill:#F9490D;" d="M384.443,262.645h72v-72h-72V262.645z"/>
			<path style="fill:#C43173;" d="M407.04,293.443h72v-72h-72V293.443z"/>
			<path style="fill:#BF3F5E;" d="M349.563,303.341h72v-72h-72V303.341z"/>
			<path style="fill:#F26BB1;" d="M373.253,271.047h72v-72h-72V271.047z"/>
			<path style="fill:#36918F;" d="M366.003,294.156h72v-72h-72V294.156z"/>
			<path style="fill:#EFE16B;" d="M364.032,246.127h72v-72h-72V246.127z"/>
			<path style="fill:#C0C036;" d="M370.238,280.594h72v-72h-72V280.594z"/>
		</g>
		<g>
			<path style="fill:#94758A;" d="M28.865,457.141h72v-72h-72V457.141z"/>
			<path style="fill:#DDEF4E;" d="M31.899,455.142h72v-72h-72V455.142z"/>
			<path style="fill:#D9D5BD;" d="M68.275,441.678h72v-72h-72V441.678z"/>
			<path style="fill:#ADC4DD;" d="M15.197,455.188h72v-72h-72V455.188z"/>
			<path style="fill:#4B704F;" d="M61.493,470.647h72v-72h-72V470.647z"/>
			<path style="fill:#538276;" d="M18.923,454.835h72v-72h-72V454.835z"/>
			<path style="fill:#436045;" d="M54.542,475.193h72v-72h-72V475.193z"/>
			<path style="fill:#487281;" d="M73.43,438.712h72v-72h-72V438.712z"/>
			<path style="fill:#4BB0AC;" d="M54.092,470.625h72v-72h-72V470.625z"/>
			<path style="fill:#D894C0;" d="M30.194,417.026h72v-72h-72V417.026z"/>
			<path style="fill:#68894B;" d="M36.936,486.361h72v-72h-72V486.361z"/>
			<path style="fill:#94749A;" d="M66.767,456.06h72v-72h-72V456.06z"/>
		</g>
		<g>
			<path style="fill:#3E2184;" d="M172.123,460.11h72v-72h-72V460.11z"/>
			<path style="fill:#EF8F8C;" d="M230.548,459.165h72v-72h-72V459.165z"/>
			<path style="fill:#E9C48B;" d="M207.976,424.319h72v-72h-72V424.319z"/>
			<path style="fill:#50565E;" d="M192.813,422.131h72v-72h-72V422.131z"/>
			<path style="fill:#CCB1C6;" d="M225.237,467.445h72v-72h-72V467.445z"/>
			<path style="fill:#343F34;" d="M235.972,461.285h72v-72h-72V461.285z"/>
			<path style="fill:#B96E9E;" d="M232.485,478.448h72v-72h-72V478.448z"/>
			<path style="fill:#3E403E;" d="M173.17,434.689h72v-72h-72V434.689z"/>
			<path style="fill:#C73E49;" d="M184.476,464.1h72v-72h-72V464.1z"/>
			<path style="fill:#B5DD7B;" d="M206.167,442.087h72v-72h-72V442.087z"/>
			<path style="fill:#550D7F;" d="M236.683,431.871h72v-72h-72V431.871z"/>
			<path style="fill:#4F4937;" d="M233.446,482.476h72v-72h-72V482.476z"/>
		</g>
		<g>
			<path style="fill:#550D7F;" d="M421.529,426.86h72v-72h-72V426.86z"/>
			<path style="fill:#4F4937;" d="M418.292,477.465h72v-72h-72V477.465z"/>
			<path style="fill:#6BC4BC;" d="M356.098,447.176h72v-72h-72V447.176z"/>
			<path style="fill:#3B444D;" d="M390.31,439.959h72v-72h-72V439.959z"/>
			<path style="fill:#C34357;" d="M358.843,435.88h72v-72h-72V435.88z"/>
			<path style="fill:#D39C41;" d="M368.387,464.551h72v-72h-72V464.551z"/>
			<path style="fill:#7DA945;" d="M416.485,414.797h72v-72h-72V414.797z"/>
			<path style="fill:#69B068;" d="M401.421,458.898h72v-72h-72V458.898z"/>
			<path style="fill:#C18770;" d="M376.067,460.287h72v-72h-72V460.287z"/>
			<path style="fill:#680E80;" d="M416.665,459.013h72v-72h-72V459.013z"/>
			<path style="fill:#968071;" d="M390.414,425.377h72v-72h-72V425.377z"/>
			<path style="fill:#B297B2;" d="M403.234,446.581h72v-72h-72V446.581z"/>
		</g>
		<g>
			<path style="fill:#68894B;" d="M34.875,653.525h72v-72h-72V653.525z"/>
			<path style="fill:#94749A;" d="M64.707,623.224h72v-72h-72V623.224z"/>
			<path style="fill:#40858E;" d="M26.705,652.165h72v-72h-72V652.165z"/>
			<path style="fill:#6097B4;" d="M64.24,586.436h72v-72h-72V586.436z"/>
			<path style="fill:#ED774C;" d="M40.724,627.341h72v-72h-72V627.341z"/>
			<path style="fill:#F7654C;" d="M29.86,586.112h72v-72h-72V586.112z"/>
			<path style="fill:#DB596A;" d="M79.503,626.007h72v-72h-72V626.007z"/>
			<path style="fill:#E674B1;" d="M15.124,616.825h72v-72h-72V616.825z"/>
			<path style="fill:#FE8A0E;" d="M35.526,620.831h72v-72h-72V620.831z"/>
			<path style="fill:#6FB480;" d="M64.688,642.911h72v-72h-72V642.911z"/>
			<path style="fill:#3E2184;" d="M15.445,626.416h72v-72h-72V626.416z"/>
			<path style="fill:#EF8F8C;" d="M73.87,625.471h72v-72h-72V625.471z"/>
		</g>
		<g>
			<path style="fill:#EFE16B;" d="M195.152,598.208h72v-72h-72V598.208z"/>
			<path style="fill:#C0C036;" d="M201.357,632.674h72v-72h-72V632.674z"/>
			<path style="fill:#96BE65;" d="M192.705,593.583h72v-72h-72V593.583z"/>
			<path style="fill:#F385AF;" d="M206.637,629.145h72v-72h-72V629.145z"/>
			<path style="fill:#9C5B5C;" d="M191.069,632.937h72v-72h-72V632.937z"/>
			<path style="fill:#8B818A;" d="M201.496,648.208h72v-72h-72V648.208z"/>
			<path style="fill:#269772;" d="M172.123,628.611h72v-72h-72V628.611z"/>
			<path style="fill:#BC9AC0;" d="M227.305,644.418h72v-72h-72V644.418z"/>
			<path style="fill:#DDB247;" d="M238.504,626.975h72v-72h-72V626.975z"/>
			<path style="fill:#BFC439;" d="M213.649,592.055h72v-72h-72V592.055z"/>
			<path style="fill:#94758A;" d="M187.992,628.748h72v-72h-72V628.748z"/>
			<path style="fill:#DDEF4E;" d="M191.026,626.749h72v-72h-72V626.749z"/>
		</g>
		<g>
			<path style="fill:#8B818A;" d="M386.496,646.145h72v-72h-72V646.145z"/>
			<path style="fill:#269772;" d="M357.123,626.549h72v-72h-72V626.549z"/>
			<path style="fill:#BC9AC0;" d="M412.305,642.356h72v-72h-72V642.356z"/>
			<path style="fill:#DDB247;" d="M423.504,624.913h72v-72h-72V624.913z"/>
			<path style="fill:#BFC439;" d="M398.649,589.993h72v-72h-72V589.993z"/>
			<path style="fill:#94758A;" d="M372.992,626.686h72v-72h-72V626.686z"/>
			<path style="fill:#DDEF4E;" d="M376.026,624.686h72v-72h-72V624.686z"/>
			<path style="fill:#D9D5BD;" d="M412.402,611.223h72v-72h-72V611.223z"/>
			<path style="fill:#ADC4DD;" d="M359.324,624.733h72v-72h-72V624.733z"/>
			<path style="fill:#4B704F;" d="M405.621,640.192h72v-72h-72V640.192z"/>
			<path style="fill:#538276;" d="M363.051,624.38h72v-72h-72V624.38z"/>
			<path style="fill:#436045;" d="M398.669,644.738h72v-72h-72V644.738z"/>
		</g>
	</g>
</svg>
